<svg version="1" xmlns="http://www.w3.org/2000/svg" width="682.667" height="682.667" viewBox="0 0 512.000000 512.000000"><path d="M230.5 1.1C152.9 9 83.5 51.3 41.1 116.5 3.8 173.8-8.5 242.9 6.2 312c7.2 33.9 27.1 75.3 49.8 103.4 30.5 37.8 73.1 67.4 118.5 82.5 27.9 9.2 49.3 12.6 81 12.6 31.7 0 53.1-3.4 81-12.6 53.9-17.9 101-54.3 132.8-102.4 20.6-31.3 34.2-68.1 39.9-108 1.7-11.8 1.7-52.2 0-64-4.2-29.7-11.9-55.1-24.2-80-37.6-76.7-107.7-127.8-193-141-12.5-1.9-48.6-2.8-61.5-1.4zm-36.6 143.8c12.1 3.1 20.2 7.4 28.2 15l6.8 6.6-11.8 10.6-11.7 10.7-5.3-5.4c-13.6-13.8-37.7-17.5-57.2-8.8-6 2.7-13.4 9.5-16.2 15-2.5 4.9-3.7 13.7-2.7 19.9 2.6 16.2 15.2 24.9 50.5 34.9 41 11.6 58.6 31.7 56.2 63.8-1.4 17.6-7 30.1-18.7 41.8-8.7 8.7-17.1 13.5-30.5 17.6-8.4 2.6-10.2 2.8-26.5 2.8-15.7 0-18.5-.3-27.1-2.6-16.6-4.5-31.1-12.9-38.7-22.5l-3.1-4 9.2-7.9c5-4.3 10.4-8.9 11.8-10.2l2.7-2.2 6.2 6.4c19.4 20.3 53.6 22.2 73 4 8.9-8.4 12.7-20.2 10-31.5-1-4.2-2.4-6.4-6.5-10.5-6.6-6.7-16.9-11.6-39.5-18.9-24.1-7.8-33.4-12.7-43.5-22.9C97.2 234.1 93 223.5 93 204.3c0-8.1.5-11.8 2.5-18.1 6.8-21.5 25.7-37.2 51.5-42.7 9.8-2.1 36-1.3 46.9 1.4zM362 148c28.7 3.5 46.8 16.8 52.5 38.7 2.2 8.3 1.9 22.6-.5 30.5-3.8 12.4-13.4 22.4-27.8 29.1-7.3 3.3-8.2 4.7-3.2 4.7 4.3 0 13.5 3.6 19.5 7.5 14.2 9.4 23.5 27.7 23.5 46 0 32.1-24.9 55-64.5 59.5-4.9.5-26.4 1-47.7 1H275V147h39.3c21.6 0 43.1.5 47.7 1z"/><path d="M304 205.4V238h22.8c32.2-.1 41.2-2 50-10.8 5.9-5.9 7.6-10.4 8-20.9.4-8.2.1-9.7-2.3-15.2-3-6.7-9.1-13-15.2-15.8-3.3-1.5-7.8-1.8-33.5-2.1l-29.8-.3v32.5zM304 300.9V339h26.3c27.9 0 34.7-.7 43.4-4.5 6.6-3 15.5-11.3 18.5-17.4 3-6.1 3.3-21.8.5-29.8-3.4-9.7-12.2-17.3-25-21.6-5.5-1.8-9.3-2.1-34.9-2.5l-28.8-.4v38.1z"/></svg>